<?xml version="1.0" encoding="UTF-8" standalone="no"?> <svg xmlns:dc="http://purl.org/dc/elements/1.1/" xmlns:cc="http://creativecommons.org/ns#" xmlns:rdf="http://www.w3.org/1999/02/22-rdf-syntax-ns#" xmlns:svg="http://www.w3.org/2000/svg" xmlns="http://www.w3.org/2000/svg" viewBox="0 0 1280 720" height="720" width="1280" xml:space="preserve" id="svg2" version="1.1"><metadata id="metadata8"></metadata><defs id="defs6"><clipPath id="clipPath18"><path style="clip-rule:evenodd" id="path16" d="M 0,1.2207e-4 H 960 V 540.00012 H 0 Z"></path></clipPath><clipPath id="clipPath32"><path style="clip-rule:evenodd" id="path30" d="M 1.4305e-5,0 H 960.00001 V 540 H 1.4305e-5 Z"></path></clipPath><clipPath id="clipPath44"><path style="clip-rule:evenodd" id="path42" d="M 1.4305e-5,0 H 960.00001 V 540 H 1.4305e-5 Z"></path></clipPath><clipPath id="clipPath60"><path style="clip-rule:evenodd" id="path58" d="M 1.4305e-5,0 H 960.00001 V 540 H 1.4305e-5 Z"></path></clipPath><clipPath id="clipPath72"><path style="clip-rule:evenodd" id="path70" d="M 1.4305e-5,0 H 960.00001 V 540 H 1.4305e-5 Z"></path></clipPath><clipPath id="clipPath88"><path style="clip-rule:evenodd" id="path86" d="M 1.4305e-5,0 H 960.00001 V 540 H 1.4305e-5 Z"></path></clipPath><clipPath id="clipPath100"><path style="clip-rule:evenodd" id="path98" d="M 1.4305e-5,0 H 960.00001 V 540 H 1.4305e-5 Z"></path></clipPath><clipPath id="clipPath116"><path style="clip-rule:evenodd" id="path114" d="M 1.4305e-5,0 H 960.00001 V 540 H 1.4305e-5 Z"></path></clipPath><clipPath id="clipPath128"><path style="clip-rule:evenodd" id="path126" d="M 1.4305e-5,0 H 960.00001 V 540 H 1.4305e-5 Z"></path></clipPath><clipPath id="clipPath148"><path style="clip-rule:evenodd" id="path146" d="M 1.4305e-5,0 H 960.00001 V 540 H 1.4305e-5 Z"></path></clipPath><clipPath id="clipPath162"><path style="clip-rule:evenodd" id="path160" d="M 1.4305e-5,0 H 960.00001 V 540 H 1.4305e-5 Z"></path></clipPath></defs><g transform="matrix(1.3333333,0,0,-1.3333333,0,720)" id="g10"><g id="g12"><g clip-path="url(#clipPath18)" id="g14"><path id="path20" style="fill:#ffffff;fill-opacity:1;fill-rule:evenodd;stroke:none" d="M 0,6.1035e-5 H 960 V 540.00006 H 0 Z"></path></g></g><path id="path22" style="fill:#ffffff;fill-opacity:1;fill-rule:evenodd;stroke:none" d="m 57.12,458 c 0,9.43 7.647,17.08 17.08,17.08 h 226.84 c 9.43,0 17.08,-7.65 17.08,-17.08 v -68.32 c 0,-9.43 -7.65,-17.08 -17.08,-17.08 H 74.2 c -9.433,0 -17.08,7.65 -17.08,17.08 z"></path><path id="path24" style="fill:none;stroke:#000000;stroke-width:0.95999998;stroke-linecap:butt;stroke-linejoin:miter;stroke-miterlimit:10;stroke-dasharray:none;stroke-opacity:1" d="m 57.12,458 c 0,9.43 7.647,17.08 17.08,17.08 h 226.84 c 9.43,0 17.08,-7.65 17.08,-17.08 v -68.32 c 0,-9.43 -7.65,-17.08 -17.08,-17.08 H 74.2 c -9.433,0 -17.08,7.65 -17.08,17.08 z"></path><g id="g26"><g clip-path="url(#clipPath32)" id="g28"><text id="text36" style="font-variant:normal;font-weight:bold;font-size:20.06399918px;font-family:Calibri;-inkscape-font-specification:Calibri-Bold;writing-mode:lr-tb;fill:#000000;fill-opacity:1;fill-rule:nonzero;stroke:none" transform="matrix(1,0,0,-1,160.49,429.12)"><tspan id="tspan34" y="0" x="0 10.312896 20.144257 29.393761 39.48595 44.020416">Page 4</tspan></text> </g></g><g id="g38"><g clip-path="url(#clipPath44)" id="g40"><text id="text48" style="font-variant:normal;font-weight:bold;font-size:20.04000092px;font-family:Calibri;-inkscape-font-specification:Calibri-Bold;writing-mode:lr-tb;fill:#000000;fill-opacity:1;fill-rule:nonzero;stroke:none" transform="matrix(1,0,0,-1,125.57,405.1)"><tspan id="tspan46" y="0" x="0 13.20636 23.987881 28.316521 38.035919 47.23428 58.055882 68.136002 75.250198 80.180038 96.472557 106.55268 117.09372">No experiment</tspan></text> </g></g><path id="path50" style="fill:#ffffff;fill-opacity:1;fill-rule:evenodd;stroke:none" d="m 641.88,355.5 c 0,9.44 7.66,17.1 17.1,17.1 h 226.8 c 9.44,0 17.1,-7.66 17.1,-17.1 v -68.4 c 0,-9.44 -7.66,-17.1 -17.1,-17.1 h -226.8 c -9.44,0 -17.1,7.66 -17.1,17.1 z"></path><path id="path52" style="fill:none;stroke:#000000;stroke-width:0.95999998;stroke-linecap:butt;stroke-linejoin:miter;stroke-miterlimit:10;stroke-dasharray:none;stroke-opacity:1" d="m 641.88,355.5 c 0,9.44 7.66,17.1 17.1,17.1 h 226.8 c 9.44,0 17.1,-7.66 17.1,-17.1 v -68.4 c 0,-9.44 -7.66,-17.1 -17.1,-17.1 h -226.8 c -9.44,0 -17.1,7.66 -17.1,17.1 z"></path><g id="g54"><g clip-path="url(#clipPath60)" id="g56"><text id="text64" style="font-variant:normal;font-weight:bold;font-size:20.04000092px;font-family:Calibri;-inkscape-font-specification:Calibri-Bold;writing-mode:lr-tb;fill:#000000;fill-opacity:1;fill-rule:nonzero;stroke:none" transform="matrix(1,0,0,-1,745.3,326.52)"><tspan id="tspan62" y="0" x="0 10.3206 20.22036 29.39868 39.478802 44.007839">Page 2</tspan></text> </g></g><g id="g66"><g clip-path="url(#clipPath72)" id="g68"><text id="text76" style="font-variant:normal;font-weight:bold;font-size:20.04000092px;font-family:Calibri;-inkscape-font-specification:Calibri-Bold;writing-mode:lr-tb;fill:#000000;fill-opacity:1;fill-rule:nonzero;stroke:none" transform="matrix(1,0,0,-1,717.22,302.52)"><tspan id="tspan74" y="0" x="0 9.77952 18.97788 29.739361 39.819481 46.933681 51.863522 68.156036 78.23616 88.797241 95.751122 100.2">Experiment 2</tspan></text> </g></g><path id="path78" style="fill:#ffffff;fill-opacity:1;fill-rule:evenodd;stroke:none" d="m 57.12,252.9 c 0,9.44 7.656,17.1 17.1,17.1 h 226.8 c 9.44,0 17.1,-7.66 17.1,-17.1 v -68.4 c 0,-9.44 -7.66,-17.1 -17.1,-17.1 H 74.22 c -9.444,0 -17.1,7.66 -17.1,17.1 z"></path><path id="path80" style="fill:none;stroke:#000000;stroke-width:0.95999998;stroke-linecap:butt;stroke-linejoin:miter;stroke-miterlimit:10;stroke-dasharray:none;stroke-opacity:1" d="m 57.12,252.9 c 0,9.44 7.656,17.1 17.1,17.1 h 226.8 c 9.44,0 17.1,-7.66 17.1,-17.1 v -68.4 c 0,-9.44 -7.66,-17.1 -17.1,-17.1 H 74.22 c -9.444,0 -17.1,7.66 -17.1,17.1 z"></path><g id="g82"><g clip-path="url(#clipPath88)" id="g84"><text id="text92" style="font-variant:normal;font-weight:bold;font-size:20.06399918px;font-family:Calibri;-inkscape-font-specification:Calibri-Bold;writing-mode:lr-tb;fill:#000000;fill-opacity:1;fill-rule:nonzero;stroke:none" transform="matrix(1,0,0,-1,160.49,223.94)"><tspan id="tspan90" y="0" x="0 10.312896 20.144257 29.393761 39.48595 44.020416">Page 1</tspan></text> </g></g><g id="g94"><g clip-path="url(#clipPath100)" id="g96"><text id="text104" style="font-variant:normal;font-weight:bold;font-size:20.04000092px;font-family:Calibri;-inkscape-font-specification:Calibri-Bold;writing-mode:lr-tb;fill:#000000;fill-opacity:1;fill-rule:nonzero;stroke:none" transform="matrix(1,0,0,-1,132.41,199.92)"><tspan id="tspan102" y="0" x="0 9.77952 18.97788 29.739361 39.819481 46.933681 51.863522 68.156036 78.23616 88.797241 95.751122 100.2">Experiment 1</tspan></text> </g></g><path id="path106" style="fill:#ffffff;fill-opacity:1;fill-rule:evenodd;stroke:none" d="m 641.88,150.32 c 0,9.43 7.65,17.08 17.08,17.08 H 885.8 c 9.43,0 17.08,-7.65 17.08,-17.08 V 82 c 0,-9.433 -7.65,-17.08 -17.08,-17.08 H 658.96 c -9.43,0 -17.08,7.647 -17.08,17.08 z"></path><path id="path108" style="fill:none;stroke:#000000;stroke-width:0.95999998;stroke-linecap:butt;stroke-linejoin:miter;stroke-miterlimit:10;stroke-dasharray:none;stroke-opacity:1" d="m 641.88,150.32 c 0,9.43 7.65,17.08 17.08,17.08 H 885.8 c 9.43,0 17.08,-7.65 17.08,-17.08 V 82 c 0,-9.433 -7.65,-17.08 -17.08,-17.08 H 658.96 c -9.43,0 -17.08,7.647 -17.08,17.08 z"></path><g id="g110"><g clip-path="url(#clipPath116)" id="g112"><text id="text120" style="font-variant:normal;font-weight:bold;font-size:20.04000092px;font-family:Calibri;-inkscape-font-specification:Calibri-Bold;writing-mode:lr-tb;fill:#000000;fill-opacity:1;fill-rule:nonzero;stroke:none" transform="matrix(1,0,0,-1,745.3,121.34)"><tspan id="tspan118" y="0" x="0 10.3206 20.22036 29.39868 39.478802 44.007839">Page 3</tspan></text> </g></g><g id="g122"><g clip-path="url(#clipPath128)" id="g124"><text id="text132" style="font-variant:normal;font-weight:bold;font-size:20.04000092px;font-family:Calibri;-inkscape-font-specification:Calibri-Bold;writing-mode:lr-tb;fill:#000000;fill-opacity:1;fill-rule:nonzero;stroke:none" transform="matrix(1,0,0,-1,710.38,97.344)"><tspan id="tspan130" y="0" x="0 13.20636 23.987881 28.316521 38.035919 47.23428 58.055882 68.136002 75.250198 80.180038 96.472557 106.55268 117.09372">No experiment</tspan></text> </g></g><path id="path134" style="fill:#000000;fill-opacity:1;fill-rule:nonzero;stroke:none" d="M 318.27,424.32 637.3,323.26 637,322.31 317.97,423.36 Z m 318.83,-98.38 4.81,-4.67 -6.62,-1.05 z"></path><path id="path136" style="fill:#000000;fill-opacity:1;fill-rule:nonzero;stroke:none" d="M 318.27,218.2 637.3,319.25 637,320.21 317.97,219.15 Z m 318.83,98.37 4.81,4.67 -6.62,1.05 z"></path><path id="path138" style="fill:#000000;fill-opacity:1;fill-rule:nonzero;stroke:none" d="M 318.27,219.24 637.3,118.18 637,117.23 317.97,218.28 Z m 318.83,-98.38 4.81,-4.67 -6.62,-1.05 z"></path><path id="path140" style="fill:#ffffff;fill-opacity:1;fill-rule:evenodd;stroke:none" d="M 475.8,259.92 H 507 v 31.2 h -31.2 z"></path><g id="g142"><g clip-path="url(#clipPath148)" id="g144"><text id="text152" style="font-variant:normal;font-weight:normal;font-size:20.04000092px;font-family:Calibri;-inkscape-font-specification:Calibri;writing-mode:lr-tb;fill:#000000;fill-opacity:1;fill-rule:nonzero;stroke:none" transform="matrix(1,0,0,-1,485.64,268.75)"><tspan id="tspan150" y="0" x="0">A</tspan></text> </g></g><path id="path154" style="fill:#ffffff;fill-opacity:1;fill-rule:evenodd;stroke:none" d="M 475.8,151.8 H 507 V 183 h -31.2 z"></path><g id="g156"><g clip-path="url(#clipPath162)" id="g158"><text id="text166" style="font-variant:normal;font-weight:normal;font-size:20.04000092px;font-family:Calibri;-inkscape-font-specification:Calibri;writing-mode:lr-tb;fill:#000000;fill-opacity:1;fill-rule:nonzero;stroke:none" transform="matrix(1,0,0,-1,486,160.63)"><tspan id="tspan164" y="0" x="0">B</tspan></text> </g></g></g></svg> 